<svg width="54" height="54" viewBox="0 0 54 54" fill="none" xmlns="http://www.w3.org/2000/svg">
<rect x="3" y="2" width="48" height="48" rx="24" fill="white"/>
<g filter="url(#filter0_dd_42_220)">
<rect x="3" y="2" width="48" height="48" rx="24" fill="white" fill-opacity="0.01" shape-rendering="crispEdges"/>
</g>
<path d="M22 30.3C24.2 30.3 26 28.47 26 26.25C26 25.09 25.43 23.99 24.29 23.06C23.15 22.13 22.29 20.75 22 19.3C21.71 20.75 20.86 22.14 19.71 23.06C18.56 23.98 18 25.1 18 26.25C18 28.47 19.8 30.3 22 30.3" stroke="#5B5AE5" stroke-width="2" stroke-linecap="round" stroke-linejoin="round"/>
<path d="M27.5601 20.6C28.2473 19.5009 28.7348 18.2889 29.0001 17.02C29.5001 19.52 31.0001 21.92 33.0001 23.52C35.0001 25.12 36.0001 27.02 36.0001 29.02C36.0118 31.847 34.3171 34.4018 31.7082 35.4905C29.0993 36.5792 26.0913 35.9867 24.0901 33.99" stroke="#5B5AE5" stroke-width="2" stroke-linecap="round" stroke-linejoin="round"/>
<defs>
<filter id="filter0_dd_42_220" x="0" y="0" width="54" height="54" filterUnits="userSpaceOnUse" color-interpolation-filters="sRGB">
<feFlood flood-opacity="0" result="BackgroundImageFix"/>
<feColorMatrix in="SourceAlpha" type="matrix" values="0 0 0 0 0 0 0 0 0 0 0 0 0 0 0 0 0 0 127 0" result="hardAlpha"/>
<feMorphology radius="1" operator="erode" in="SourceAlpha" result="effect1_dropShadow_42_220"/>
<feOffset dy="1"/>
<feGaussianBlur stdDeviation="1"/>
<feComposite in2="hardAlpha" operator="out"/>
<feColorMatrix type="matrix" values="0 0 0 0 0 0 0 0 0 0 0 0 0 0 0 0 0 0 0.1 0"/>
<feBlend mode="normal" in2="BackgroundImageFix" result="effect1_dropShadow_42_220"/>
<feColorMatrix in="SourceAlpha" type="matrix" values="0 0 0 0 0 0 0 0 0 0 0 0 0 0 0 0 0 0 127 0" result="hardAlpha"/>
<feOffset dy="1"/>
<feGaussianBlur stdDeviation="1.5"/>
<feComposite in2="hardAlpha" operator="out"/>
<feColorMatrix type="matrix" values="0 0 0 0 0 0 0 0 0 0 0 0 0 0 0 0 0 0 0.1 0"/>
<feBlend mode="normal" in2="effect1_dropShadow_42_220" result="effect2_dropShadow_42_220"/>
<feBlend mode="normal" in="SourceGraphic" in2="effect2_dropShadow_42_220" result="shape"/>
</filter>
</defs>
</svg>
